<svg xmlns="http://www.w3.org/2000/svg" viewBox="0 0 512 512" fill="none">
  <!-- E: Minimal Line — geometric, two-tone, abstract interpretation -->
  <defs>
    <linearGradient id="eBg" x1="0" y1="0" x2="512" y2="512" gradientUnits="userSpaceOnUse">
      <stop offset="0%" stop-color="#233728"/>
      <stop offset="100%" stop-color="#1A2A1E"/>
    </linearGradient>
  </defs>
  <rect width="512" height="512" rx="112" fill="url(#eBg)"/>
  <!-- Body outline only — cream stroke, no fill -->
  <path d="M163 214c0-15 12-27 27-27h132c15 0 27 12 27 27 0 87-33 158-80 206-23 23-49 35-66 35s-43-12-66-35c-47-48-80-119-80-206Z"
    stroke="#F5EBDD" stroke-width="18" fill="rgba(245,235,221,0.08)" stroke-linejoin="round"/>
  <!-- Cap arc — accent warm color -->
  <path d="M186 136 C204 108 230 95 256 95 C282 95 308 108 326 136"
    stroke="#C8874A" stroke-width="20" stroke-linecap="round" fill="none"/>
  <!-- Cap bottom line -->
  <path d="M186 192 Q216 206 256 208 Q296 206 326 192"
    stroke="#C8874A" stroke-width="12" stroke-linecap="round" fill="none"/>
  <!-- Vertical texture lines on body — subtle -->
  <line x1="222" y1="205" x2="200" y2="390" stroke="rgba(245,235,221,0.08)" stroke-width="6" stroke-linecap="round"/>
  <line x1="256" y1="205" x2="256" y2="400" stroke="rgba(245,235,221,0.08)" stroke-width="6" stroke-linecap="round"/>
  <line x1="290" y1="205" x2="312" y2="390" stroke="rgba(245,235,221,0.08)" stroke-width="6" stroke-linecap="round"/>
</svg>
