<svg xmlns="http://www.w3.org/2000/svg" viewBox="0 0 512 512" fill="none">
  <!-- A: Gradient Modern — polished version of current, no harsh strokes -->
  <defs>
    <linearGradient id="aBody" x1="256" y1="187" x2="256" y2="455" gradientUnits="userSpaceOnUse">
      <stop offset="0%" stop-color="#CF8844"/>
      <stop offset="100%" stop-color="#7A3A18"/>
    </linearGradient>
    <linearGradient id="aCap" x1="256" y1="90" x2="256" y2="210" gradientUnits="userSpaceOnUse">
      <stop offset="0%" stop-color="#72A065"/>
      <stop offset="100%" stop-color="#3A5B32"/>
    </linearGradient>
    <radialGradient id="aBg" cx="40%" cy="35%" r="65%">
      <stop offset="0%" stop-color="#FDF5EA"/>
      <stop offset="100%" stop-color="#EDD9C0"/>
    </radialGradient>
  </defs>
  <rect width="512" height="512" rx="112" fill="url(#aBg)"/>
  <!-- Cap -->
  <path d="M186 136 C204 108 230 95 256 95 C282 95 308 108 326 136 L326 192 Q296 208 256 210 Q216 208 186 192 Z" fill="url(#aCap)"/>
  <!-- Body -->
  <path d="M163 214c0-15 12-27 27-27h132c15 0 27 12 27 27 0 87-33 158-80 206-23 23-49 35-66 35s-43-12-66-35c-47-48-80-119-80-206Z" fill="url(#aBody)"/>
  <!-- Body highlight -->
  <ellipse cx="212" cy="268" rx="14" ry="46" fill="rgba(255,255,255,0.16)" transform="rotate(-18 212 268)"/>
  <!-- Cap highlight -->
  <ellipse cx="230" cy="145" rx="22" ry="12" fill="rgba(255,255,255,0.18)" transform="rotate(-8 230 145)"/>
</svg>
