<svg xmlns="http://www.w3.org/2000/svg" viewBox="0 0 512 512" fill="none">
  <rect width="512" height="512" rx="120" fill="#F5EBDD"/>
  <path d="M186 132c18-25 42-38 70-38s52 13 70 38" stroke="#5B7B4E" stroke-linecap="round" stroke-width="22"/>
  <path
    d="M163 214c0-15 12-27 27-27h132c15 0 27 12 27 27 0 87-33 158-80 206-23 23-49 35-66 35s-43-12-66-35c-47-48-80-119-80-206Z"
    fill="#A86C3C"
    stroke="#3B2415"
    stroke-width="14"
  />
  <path d="M187 213c36-24 102-24 138 0" stroke="#F6E9D2" stroke-linecap="round" stroke-width="16" />
</svg>
