<svg xmlns="http://www.w3.org/2000/svg" viewBox="-4 -4 32 32">
  <!-- Cap fill -->
  <path d="M7,4H17c2.21,0,4,1.79,4,4H3C3,5.79,4.79,4,7,4Z" fill="#5B7B4E"/>
  <!-- Body fill -->
  <path d="M5,10H19v4.41c0,3.67-3.48,6.1-5.56,7.23-.9.49-1.98.49-2.88,0C8.48,20.52,5,18.08,5,14.41V10Z" fill="#A86C3C"/>
  <!-- Outline frame (evenodd cuts out cap & body, revealing fills) -->
  <path fill-rule="evenodd" d="M17,2h-4V1c0-.55-.45-1-1-1s-1,.45-1,1v1H7C3.69,2,1,4.69,1,8c0,1.1,.9,2,2,2v4.41c0,4.7,4.14,7.65,6.61,8.98,.75.41,1.57.61,2.39.61s1.64-.2,2.39-.61c2.47-1.34,6.61-4.28,6.61-8.98v-4.41c1.1,0,2-.9,2-2,0-3.31-2.69-6-6-6Zm2,12.41c0,3.67-3.48,6.1-5.56,7.23-.9.49-1.98.49-2.88,0-2.08-1.12-5.56-3.56-5.56-7.23v-4.41h14v4.41ZM3,8c0-2.21,1.79-4,4-4h10c2.21,0,4,1.79,4,4H3Z" fill="#3B2415"/>
</svg>
